<svg height="464pt" viewBox="0 0 464 464" width="464pt" xmlns="http://www.w3.org/2000/svg"><path d="m432 408.003906h-400v-288h-32v320h194.71875c6.472656-.160156 12.429688 3.507813 15.203125 9.359375 3.769531 8.847657 12.457031 14.59375 22.078125 14.59375s18.308594-5.746093 22.078125-14.59375c2.773437-5.851562 8.730469-9.519531 15.203125-9.359375h194.71875v-320h-32zm0 0" fill="#254b6f"/><path d="m32 88.003906h400v320h-400zm0 0" fill="#efeadd"/><path d="m64 168.003906h128v96h-128zm0 0" fill="#326fc0"/><path d="m344 112.003906c-.019531 48.46875-31.203125 91.433594-77.28125 106.480469l-34.71875 62.078125-34.71875-62.078125c-54.488281-17.769531-86.773438-73.796875-74.816406-129.847656 11.953125-56.046875 64.289062-94.03125 121.28125-88.019531 56.996094 6.011718 100.253906 54.074218 100.253906 111.386718zm0 0" fill="#f2b134"/><path d="m264 304.003906h136v64h-136zm0 0" fill="#e74c3c"/><path d="m216 104.003906h32v80h-32zm0 0" fill="#ee2820"/><path d="m248 64.003906c0 8.835938-7.164062 16-16 16s-16-7.164062-16-16c0-8.839844 7.164062-16 16-16s16 7.160156 16 16zm0 0" fill="#ee2820"/><path d="m32 208.003906v200h184c-101.703125 0-184-89.457031-184-200zm0 0" fill="#d7d3c7"/><g fill="#f26158"><path d="m56 288.003906h16v16h-16zm0 0"/><path d="m88 288.003906h112v16h-112zm0 0"/><path d="m56 320.003906h16v16h-16zm0 0"/><path d="m88 320.003906h112v16h-112zm0 0"/><path d="m56 352.003906h16v16h-16zm0 0"/><path d="m88 352.003906h112v16h-112zm0 0"/><path d="m296 264.003906h104v16h-104zm0 0"/><path d="m296 232.003906h104v16h-104zm0 0"/><path d="m336 200.003906h64v16h-64zm0 0"/><path d="m352 168.003906h48v16h-48zm0 0"/></g></svg>