<?xml version="1.0" encoding="UTF-8" standalone="no"?>
<svg
   xmlns:dc="http://purl.org/dc/elements/1.1/"
   xmlns:cc="http://creativecommons.org/ns#"
   xmlns:rdf="http://www.w3.org/1999/02/22-rdf-syntax-ns#"
   xmlns:svg="http://www.w3.org/2000/svg"
   xmlns="http://www.w3.org/2000/svg"
   xmlns:sodipodi="http://sodipodi.sourceforge.net/DTD/sodipodi-0.dtd"
   xmlns:inkscape="http://www.inkscape.org/namespaces/inkscape"
   width="2000"
   height="500"
   version="1.1"
   id="svg15"
   sodipodi:docname="cover.svg"
   inkscape:version="1.0.2 (e86c870879, 2021-01-15, custom)">
  <metadata
     id="metadata21">
    <rdf:RDF>
      <cc:Work
         rdf:about="">
        <dc:format>image/svg+xml</dc:format>
        <dc:type
           rdf:resource="http://purl.org/dc/dcmitype/StillImage" />
        <dc:title></dc:title>
      </cc:Work>
    </rdf:RDF>
  </metadata>
  <defs
     id="defs19" />
  <sodipodi:namedview
     pagecolor="#ffffff"
     bordercolor="#666666"
     borderopacity="1"
     objecttolerance="10"
     gridtolerance="10"
     guidetolerance="10"
     inkscape:pageopacity="0"
     inkscape:pageshadow="2"
     inkscape:window-width="1516"
     inkscape:window-height="779"
     id="namedview17"
     showgrid="false"
     inkscape:zoom="0.521"
     inkscape:cx="1000"
     inkscape:cy="250"
     inkscape:window-x="2213"
     inkscape:window-y="1214"
     inkscape:window-maximized="0"
     inkscape:current-layer="svg15" />
  <!-- Created with Method Draw - http://github.com/duopixel/Method-Draw/ -->
  <g
     id="g5">
    <title
       id="title2">background</title>
    <rect
       fill="#37474f"
       id="canvas_background"
       height="502"
       width="2002"
       y="-1"
       x="-1" />
  </g>
  <g
     id="Icon"
     transform="matrix(0.40941569,0,0,0.40941569,594.38507,-158.69594)">
	<path
   fill="#20bf6b"
   d="m 1104.3,717.7 v -4.8 -0.2 -26.9 c 0,-5.6 1.9,-10.3 5.8,-13.9 3.9,-3.7 8.3,-5.5 13.3,-5.5 h 27.6 26 c 6.5,0 11.6,1.9 15.2,5.7 3.7,3.8 5.5,8.4 5.5,13.8 v 26.9 0.2 58.8 l 45.1,26 50.6,29.2 c 4.2,2.4 6.9,5.9 8,10.4 1.1,4.5 0.5,8.7 -1.6,12.4 l -23.3,40.3 c -2.8,4.9 -6.5,7.9 -10.9,9 -4.4,1.1 -8.7,0.5 -12.8,-1.8 l -50.6,-29.2 v 0 l -4.5,-2.6 -93.4,-53.9 -56.7,-32.8 c 0,0 -22.7,-13.1 -42.5,-24.5 14.6,-8.4 27.7,-16 28.9,-16.7 l 1.9,-1.1 4.5,-2.6 0.7,-0.4 c 0.3,-0.2 0.8,-0.5 1.2,-0.7 l 16.2,-9.3 10.4,-6 c 9.5,-5.5 25.1,-5.5 34.6,0 z"
   id="path23" />

	<path
   fill="#26de81"
   d="m 1099.3,714.9 -6.9,-4 -4.3,-2.5 c -0.2,-0.1 -0.5,-0.3 -0.7,-0.4 -0.4,-0.2 -0.8,-0.4 -1.1,-0.7 v 0 l -11.8,-6.8 c -0.1,0 -0.1,-0.1 -0.2,-0.1 -0.2,-0.1 -0.4,-0.2 -0.6,-0.3 l -7.9,-4.6 -20.1,-11.6 -14.6,-8.4 -8.6,-5 c -4.8,-2.8 -11,-4.1 -17.3,-4.1 -6.3,0 -12.6,1.4 -17.3,4.1 l -14.1,8.1 -49.7,28.7 v 0 c -0.2,0.1 -0.5,0.3 -0.7,0.4 L 880,732.6 664.1,857.2 v 0 l -50.6,29.2 c -4.2,2.4 -6.9,5.9 -7.9,10.4 -1.1,4.5 -0.5,8.7 1.6,12.4 l 23.2,40.3 c 2.8,4.9 6.5,7.9 10.9,9 4.4,1.1 8.7,0.5 12.8,-1.8 l 50.6,-29.2 v 0 L 962.5,778.7 c 0,0 22.7,-13.1 42.5,-24.5 14.6,-8.4 27.7,-16 28.9,-16.7 l 1.9,-1.1 4.5,-2.6 0.7,-0.4 c 0.3,-0.2 0.8,-0.5 1.2,-0.7 l 16.2,-9.3 10.4,-6 c 9.5,-5.5 25.1,-5.5 34.6,0 z"
   id="path25" />

	<path
   fill="#fed330"
   d="m 1377.5,951.7 c -27.4,0 -52.2,11.2 -70,29.4 -1.2,-0.3 -2.3,-0.5 -3.3,-0.7 -0.8,-0.1 -1.5,-0.3 -2.3,-0.4 -0.2,0 -0.3,0 -0.5,-0.1 -2.8,-0.3 -4.6,-0.2 -4.6,-0.2 -8.5,0 -16.5,2.3 -23.4,6.3 7.9,-27.3 30.3,-48.5 58.3,-54.7 4.3,-0.9 8.7,-1.4 13.2,-1.7 -1.7,0.3 -6.3,1.6 -11.3,6 0.2,0.3 0.4,0.7 0.6,1 3.2,4.5 8.4,7.5 14.3,7.5 9.6,0 17.4,-7.8 17.4,-17.4 0,-9.6 -7.8,-17.4 -17.4,-17.4 -54.2,0 -98.4,44.1 -98.4,98.3 v 18.8 16.7 29.4 27.8 c 0,19.2 2.9,33.7 7.8,44.1 7.6,16.2 20,22.4 33.2,20.5 19.8,-2.9 41.6,-23.9 52.4,-56.5 3.6,-10.8 6,-22.8 6.7,-35.8 1.8,-32.7 -3.8,-53.9 -12,-67.6 -2.8,-5.5 -6.8,-10.2 -11.5,-14.1 9.6,-8.2 21.2,-14.2 34,-17 4.3,-0.9 8.7,-1.4 13.1,-1.7 -1.7,0.3 -6.3,1.6 -11.3,6 0.2,0.3 0.4,0.6 0.6,1 3.1,4.5 8.3,7.5 14.3,7.5 9.6,0 17.4,-7.8 17.4,-17.4 0.2,-9.8 -7.6,-17.6 -17.3,-17.6 z"
   id="path27" />

	<path
   fill="#fed330"
   d="M 759.8,1066.7 V 1026 953.7 c 0,-9.6 -6.8,-13.6 -15.2,-8.8 l -28.9,16.7 -28.9,16.7 c -8.3,4.8 -15.1,8.7 -15.2,8.8 0,0 0,0 0,0 l -0.7,0.4 -0.9,0.5 -3.5,2 v 17.5 0.9 c 0,9.2 0,16.8 0,17.5 v 0 0 c 0,0.1 0,0.2 0,0.3 v 46.1 46 c 0,0.1 0,0.2 0,0.3 v 26.9 c 0,5.3 1.8,9.8 5.3,13.3 0.2,0.2 0.3,0.4 0.5,0.6 3.9,3.7 8.3,5.5 13.3,5.5 h 27.6 26 c 6.5,0 11.6,-1.9 15.2,-5.7 0.1,-0.1 0.2,-0.3 0.3,-0.4 3.4,-3.7 5.2,-8.1 5.2,-13.3 0,0 0,0 0,0 v -26.9 -26.9 c 0,0 0,0 0,0 v -19.4 -5.6 z"
   id="path29" />

	<path
   fill="#fed330"
   d="M 905.7,1056 V 941.8 869.5 c 0,-9.6 -6.8,-13.6 -15.2,-8.8 l -28.9,16.7 -28.9,16.7 c -8.3,4.8 -15.1,8.7 -15.2,8.8 0,0 0,0 0,0 l -0.7,0.4 -0.9,0.5 -3.5,2 v 17.5 0.9 c 0,9.2 0,16.8 0,17.5 v 0 0 c 0,0.1 0,0.2 0,0.3 v 83.9 81.7 c 0,0.1 0,0.2 0,0.3 v 121.9 c 0,5.3 1.8,9.8 5.3,13.3 0.2,0.2 0.3,0.4 0.5,0.6 3.9,3.7 8.3,5.5 13.3,5.5 h 27.5 26 c 6.5,0 11.6,-1.9 15.2,-5.7 0.1,-0.1 0.2,-0.3 0.3,-0.4 3.4,-3.7 5.2,-8.1 5.2,-13.3 0,0 0,0 0,0 v -121.9 -62.6 c 0,0 0,0 0,0 v -19.4 z"
   id="path31" />

	<path
   fill="#fed330"
   d="m 1104.2,1009.9 v -68.2 -72.3 c 0,-9.6 6.8,-13.6 15.2,-8.8 l 28.9,16.7 28.9,16.7 c 8.3,4.8 15.1,8.7 15.2,8.8 0,0 0,0 0,0 l 0.7,0.4 0.9,0.5 3.5,2 v 17.5 0.9 c 0,9.2 0,16.8 0,17.5 v 0 0 c 0,0.1 0,0.2 0,0.3 v 38 127.7 c 0,0.1 0,0.2 0,0.3 v 121.9 c 0,5.3 -1.8,9.8 -5.3,13.3 -0.2,0.2 -0.3,0.4 -0.5,0.6 -3.9,3.7 -8.3,5.5 -13.3,5.5 h -27.6 -26 c -6.5,0 -11.6,-1.9 -15.2,-5.7 -0.1,-0.1 -0.2,-0.3 -0.3,-0.4 -3.4,-3.7 -5.2,-8.1 -5.2,-13.3 0,0 0,0 0,0 V 1107.9 999.4 c 0,0 0,0 0,0 V 980 Z"
   id="path33" />

	<path
   fill="#fed330"
   d="m 1051.7,857.7 v -36.2 l -46.7,-27 -46.7,27 v 36.1 c 0,0.1 0,0.1 0,0.2 v 260.9 0.3 c 0,0 0,-0.1 0,-0.1 v 195.3 c 0,0 0,0 0,0 0,5.3 1.8,9.7 5.3,13.3 0.2,0.2 0.3,0.4 0.5,0.6 3.9,3.7 8.3,5.5 13.3,5.5 h 27.6 25.9 c 6.5,0 11.6,-1.9 15.2,-5.7 0.1,-0.1 0.2,-0.3 0.4,-0.4 3.4,-3.7 5.2,-8.1 5.2,-13.3 v -195.3 c 0,0.1 0,0.1 0,0.1 v -0.3 -260.8 c 0,-0.1 0,-0.1 0,-0.2 z"
   id="path35" />

	<path
   fill="#f7b731"
   d="m 759.8,1091.8 c 0,0 0,0 0,0 0,-5.2 -1.8,-9.7 -5.2,-13.3 -0.1,-0.1 -0.2,-0.3 -0.3,-0.4 -3.7,-3.8 -8.8,-5.7 -15.2,-5.7 h -26 -27.6 c -5,0 -9.4,1.8 -13.3,5.5 -0.2,0.2 -0.3,0.4 -0.5,0.6 -3.5,3.6 -5.3,8 -5.3,13.3 v 26.9 26.9 c 0,5.3 1.8,9.8 5.3,13.3 0.2,0.2 0.3,0.4 0.5,0.6 3.9,3.7 8.3,5.5 13.3,5.5 h 27.6 26 c 6.5,0 11.6,-1.9 15.2,-5.7 0.1,-0.1 0.2,-0.3 0.3,-0.4 3.4,-3.7 5.2,-8.1 5.2,-13.3 0,0 0,0 0,0 v 0 -26.9 z"
   id="path37" />

	<path
   fill="#f7b731"
   d="m 905.7,1045.5 c 0,0 0,0 0,0 0,-5.2 -1.8,-9.7 -5.2,-13.3 -0.1,-0.1 -0.2,-0.3 -0.3,-0.4 -3.7,-3.8 -8.8,-5.7 -15.2,-5.7 h -26 -27.6 c -5,0 -9.4,1.8 -13.3,5.5 -0.2,0.2 -0.3,0.4 -0.5,0.6 -3.5,3.6 -5.3,8 -5.3,13.3 v 62.6 121.9 c 0,5.3 1.8,9.8 5.3,13.3 0.2,0.2 0.3,0.4 0.5,0.6 3.9,3.7 8.3,5.5 13.3,5.5 h 27.6 26 c 6.5,0 11.6,-1.9 15.2,-5.7 0.1,-0.1 0.2,-0.3 0.3,-0.4 3.4,-3.7 5.2,-8.1 5.2,-13.3 0,0 0,0 0,0 v 0 -121.9 z"
   id="path39" />

	<path
   fill="#f7b731"
   d="m 1104.2,999.4 c 0,0 0,0 0,0 0,-5.2 1.8,-9.7 5.2,-13.3 0.1,-0.1 0.2,-0.3 0.3,-0.4 3.7,-3.8 8.8,-5.7 15.2,-5.7 h 26 27.6 c 5,0 9.4,1.8 13.3,5.5 0.2,0.2 0.3,0.4 0.5,0.6 3.5,3.6 5.3,8 5.3,13.3 v 108.6 121.9 c 0,5.3 -1.8,9.8 -5.3,13.3 -0.2,0.2 -0.3,0.4 -0.5,0.6 -3.9,3.7 -8.3,5.5 -13.3,5.5 h -27.6 -26 c -6.5,0 -11.6,-1.9 -15.2,-5.7 -0.1,-0.1 -0.2,-0.3 -0.3,-0.4 -3.4,-3.7 -5.2,-8.1 -5.2,-13.3 0,0 0,0 0,0 v 0 -121.9 z"
   id="path41" />

	<path
   fill="#f7b731"
   d="m 1051.7,1091.8 c 0,-5.3 -1.8,-9.8 -5.3,-13.3 -0.2,-0.2 -0.3,-0.4 -0.5,-0.6 -3.9,-3.7 -8.3,-5.5 -13.3,-5.5 H 1005 979 c -6.5,0 -11.6,1.9 -15.2,5.7 -0.1,0.1 -0.2,0.3 -0.3,0.4 -3.4,3.7 -5.1,8.1 -5.2,13.2 v 27.1 0.3 c 0,0 0,-0.1 0,-0.1 v 195.3 c 0,0 0,0 0,0 0,5.3 1.8,9.7 5.3,13.3 0.2,0.2 0.3,0.4 0.5,0.6 3.9,3.7 8.3,5.5 13.3,5.5 h 27.6 25.9 c 6.5,0 11.6,-1.9 15.2,-5.7 0.1,-0.1 0.2,-0.3 0.4,-0.4 3.4,-3.7 5.1,-8.1 5.2,-13.3 v -113.9 z"
   id="path43" />

</g>
</svg>
