<svg width="2000" height="500" xmlns="http://www.w3.org/2000/svg">
 <!-- Created with Method Draw - http://github.com/duopixel/Method-Draw/ -->

 <g>
  <title>background</title>
  <rect fill="#37474f" id="canvas_background" height="502" width="2002" y="-1" x="-1"/>
 </g>
 <g>
  <title>Layer 1</title>
  <g id="svg_8">
   <g id="svg_5" transform="matrix(0.0514974, 0, 0, -0.0514974, -630.5, 69.6668)">
    <circle id="svg_6" r="2559.996094" cy="-3548.577118" cx="31708.583752" fill="#FED330"/>
    <path id="svg_7" d="m30668.583984,-3348.577148l0,-1010l65,0l65,0l0,167l0,166l39,-61c74,-114 201,-212 331,-254c89,-29 277,-36 379.001953,-14c86,18 183,61 254,112c49,36 51,36 76,20c60,-40 192,-97 266,-117c110,-30 358,-38 465,-15c151,32 280.992188,119 329.992188,223c31,64 38,180 17,254c-28,96 -116.996094,176 -241.992188,217c-33,11 -127,34 -210,52c-345,71 -420,108 -459,224c-21,66 -20,117 4,170c53,111 179,166 380,166c127,0 232,-24 340,-77c40.996094,-20 78.996094,-37 83.996094,-37c5,-1 22.996094,21 37.996094,48c33,56 37,51 -66.996094,102c-122.996094,59 -208.996094,77 -384.996094,78c-170,1 -227,-9 -325,-55c-75,-35 -124,-76 -162,-133l-30,-45l-39,41c-154,159 -410.001953,231 -646.001953,183c-154,-32 -315,-139 -397,-265l-36,-55l-3,463l-2,462l-65,0l-65,0l0,-1010zm852,281c202.001953,-52 327.001953,-172 393.001953,-376c30,-96 35,-123 35,-210c0,-180 -55,-321 -170,-435c-106,-107 -238,-160 -396.001953,-160c-175,0 -294,48 -410,165c-117,118 -167,249 -167,435c0,179 55,322 168,435c141,142 348,197 547,146zm879.001953,-645c96,-19 204,-44 240,-56c150,-46 214.996094,-138 188.996094,-266c-30.996094,-148 -160.996094,-216 -414.996094,-216c-147,-1 -247,23 -383,88l-93,45l21,32c80,122 130,284 130,421l0,35l68,-23c38,-13 147,-40 243,-60z" fill="#37474F"/>
   </g>
  </g>
 </g>
</svg>