<svg height="512" viewBox="0 0 64 64" width="512" xmlns="http://www.w3.org/2000/svg"><g id="Fill_Outline" data-name="Fill Outline"><g id="Color"><g><path d="m17 3h40v52h-40z" fill="#57b7eb"/><path d="m17 9-10 10v42h40v-52z" fill="#aae1f9"/><path d="m36 50a16 16 0 0 1 -16-16v-25h-3l-10 10v42h40v-11z" fill="#57b7eb"/><path d="m7 19h10v-10z" fill="#aae1f9"/><path d="m27 41h14v14h-14z" fill="#f9e109"/><path d="m17 19-10 5v-5z" fill="#4891d3"/><path d="m36 50a15.926 15.926 0 0 1 -9-2.773v7.773h14v-5z" fill="#fcbc04"/><path d="m50 41v-32a3 3 0 0 0 -3-3h-24a3 3 0 0 1 -3-3h-3v6h30v46h10v-7a7 7 0 0 1 -7-7z" fill="#4891d3"/></g></g><g id="Outline"><g fill="#39519d"><path d="m57 2h-40a1 1 0 0 0 -1 1v2a1 1 0 0 0 2 0v-1h38v50h-5a1 1 0 0 0 0 2h6a1 1 0 0 0 1-1v-52a1 1 0 0 0 -1-1z"/><path d="m51 14h1a1 1 0 0 0 0-2h-1a1 1 0 0 0 0 2z"/><path d="m51 20h1a1 1 0 0 0 0-2h-1a1 1 0 0 0 0 2z"/><path d="m51 26h1a1 1 0 0 0 0-2h-1a1 1 0 0 0 0 2z"/><path d="m51 32h1a1 1 0 0 0 0-2h-1a1 1 0 0 0 0 2z"/><path d="m51 38h1a1 1 0 0 0 0-2h-1a1 1 0 0 0 0 2z"/><path d="m51 44h1a1 1 0 0 0 0-2h-1a1 1 0 0 0 0 2z"/><path d="m47 40a1 1 0 0 0 -1 1v19h-38v-4a1 1 0 0 0 -2 0v5a1 1 0 0 0 1 1h40a1 1 0 0 0 1-1v-20a1 1 0 0 0 -1-1z"/><path d="m47 8h-30a1 1 0 0 0 -.707.293l-10 10a1 1 0 0 0 -.293.707v33a1 1 0 0 0 2 0v-32h9a1 1 0 0 0 1-1v-9h28v27a1 1 0 0 0 2 0v-28a1 1 0 0 0 -1-1zm-37.586 10 6.586-6.586v6.586z"/><path d="m37 49a1 1 0 0 0 1-1v-3a1 1 0 0 0 -1-1h-4a1 1 0 0 0 0 2h3v2a1 1 0 0 0 1 1z"/><path d="m41 20a1 1 0 0 0 0-2h-18a1 1 0 0 0 0 2z"/><path d="m11 25a1 1 0 0 0 1 1h29a1 1 0 0 0 0-2h-29a1 1 0 0 0 -1 1z"/><path d="m12 32h29a1 1 0 0 0 0-2h-29a1 1 0 0 0 0 2z"/><path d="m12 38h29a1 1 0 0 0 0-2h-29a1 1 0 0 0 0 2z"/><path d="m12 44h11a1 1 0 0 0 0-2h-11a1 1 0 0 0 0 2z"/><path d="m12 50h11a1 1 0 0 0 0-2h-11a1 1 0 0 0 0 2z"/><path d="m37 56h4a1 1 0 0 0 1-1v-14a1 1 0 0 0 -1-1h-14a1 1 0 0 0 -1 1v14a1 1 0 0 0 1 1h6a1 1 0 0 0 0-2h-5v-12h12v12h-3a1 1 0 0 0 0 2z"/></g></g></g></svg>