<?xml version="1.0" encoding="iso-8859-1"?>
<!-- Generator: Adobe Illustrator 19.0.0, SVG Export Plug-In . SVG Version: 6.00 Build 0)  -->
<svg version="1.1" id="Capa_1" xmlns="http://www.w3.org/2000/svg" xmlns:xlink="http://www.w3.org/1999/xlink" x="0px" y="0px"
	 viewBox="0 0 468.293 468.293" style="enable-background:new 0 0 468.293 468.293;" xml:space="preserve">
<path style="fill:#2F4859;" d="M195.791,440.003c0,15.624,17.695,28.29,39.522,28.29c21.827,0,39.521-12.666,39.521-28.29H195.791z"
	/>
<path style="fill:#FCD462;" d="M225.265,62.632c-63.925,4.084-121.958,62.13-126.037,126.056
	c-2.723,42.677,14.382,81.42,42.983,107.95c15.706,14.57,25.139,34.656,25.139,56.079l133.592,0.013
	c0-20.733,8.264-40.873,23.669-54.747c27.462-24.736,44.736-60.559,44.736-100.433C369.348,119.94,303.957,57.603,225.265,62.632z"
	/>
<circle style="fill:#F6C358;" cx="234.146" cy="198.556" r="102.113"/>
<path style="fill:#D5D6DB;" d="M234.146,43.301L234.146,43.301c-4.484,0-8.119-3.635-8.119-8.119V8.119
	c0-4.484,3.635-8.119,8.119-8.119l0,0c4.484,0,8.119,3.635,8.119,8.119v27.063C242.265,39.666,238.63,43.301,234.146,43.301z"/>
<path id="SVGCleanerId_0" style="fill:#D5D6DB;" d="M142.885,72.953L142.885,72.953c-3.628,2.636-8.705,1.831-11.34-1.796
	l-15.907-21.894c-2.636-3.628-1.831-8.705,1.796-11.34l0,0c3.628-2.636,8.705-1.831,11.34,1.796l15.907,21.894
	C147.317,65.241,146.513,70.318,142.885,72.953z"/>
<g>
	<path id="SVGCleanerId_0_1_" style="fill:#D5D6DB;" d="M142.885,72.953L142.885,72.953c-3.628,2.636-8.705,1.831-11.34-1.796
		l-15.907-21.894c-2.636-3.628-1.831-8.705,1.796-11.34l0,0c3.628-2.636,8.705-1.831,11.34,1.796l15.907,21.894
		C147.317,65.241,146.513,70.318,142.885,72.953z"/>
</g>
<path id="SVGCleanerId_1" style="fill:#D5D6DB;" d="M86.482,150.585L86.482,150.585c-1.386,4.264-5.966,6.598-10.23,5.213
	l-25.738-8.363c-4.264-1.386-6.598-5.966-5.213-10.23h0c1.386-4.264,5.966-6.598,10.23-5.213l25.738,8.363
	C85.534,141.74,87.868,146.32,86.482,150.585z"/>
<g>
	<path id="SVGCleanerId_1_1_" style="fill:#D5D6DB;" d="M86.482,150.585L86.482,150.585c-1.386,4.264-5.966,6.598-10.23,5.213
		l-25.738-8.363c-4.264-1.386-6.598-5.966-5.213-10.23h0c1.386-4.264,5.966-6.598,10.23-5.213l25.738,8.363
		C85.534,141.74,87.868,146.32,86.482,150.585z"/>
</g>
<path id="SVGCleanerId_2" style="fill:#D5D6DB;" d="M381.81,150.585L381.81,150.585c-1.386-4.264,0.948-8.845,5.213-10.23
	l25.738-8.363c4.264-1.386,8.845,0.948,10.23,5.213h0c1.386,4.264-0.948,8.845-5.213,10.23l-25.738,8.363
	C387.776,157.183,383.196,154.849,381.81,150.585z"/>
<g>
	<path id="SVGCleanerId_2_1_" style="fill:#D5D6DB;" d="M381.81,150.585L381.81,150.585c-1.386-4.264,0.948-8.845,5.213-10.23
		l25.738-8.363c4.264-1.386,8.845,0.948,10.23,5.213h0c1.386,4.264-0.948,8.845-5.213,10.23l-25.738,8.363
		C387.776,157.183,383.196,154.849,381.81,150.585z"/>
</g>
<path style="fill:#D5D6DB;" d="M325.408,72.953L325.408,72.953c-3.628-2.636-4.432-7.713-1.796-11.34l15.907-21.894
	c2.636-3.628,7.713-4.432,11.34-1.796v0c3.628,2.636,4.432,7.713,1.796,11.34l-15.907,21.894
	C334.113,74.785,329.035,75.589,325.408,72.953z"/>
<path style="fill:#DC8744;" d="M246.372,362.863h-24.451c-2.244,0-4.171-1.591-4.598-3.793l-21.924-113.098
	c-0.058-0.293-0.085-0.591-0.085-0.89v-36.677c0-1.896,1.14-3.604,2.89-4.329c1.747-0.713,3.765-0.317,5.104,1.018
	c8.253,8.256,19.207,12.799,30.838,12.799c11.631,0,22.585-4.543,30.838-12.799c1.341-1.341,3.357-1.738,5.104-1.018
	c1.75,0.726,2.89,2.433,2.89,4.329v36.677c0,0.299-0.027,0.598-0.085,0.89L250.969,359.07
	C250.542,361.272,248.616,362.863,246.372,362.863z M225.783,353.497h16.726l21.104-108.866v-26.323
	c-8.656,5.823-18.826,8.951-29.466,8.951s-20.811-3.128-29.466-8.951v26.323L225.783,353.497z"/>
<path style="fill:#3A556A;" d="M316.38,367.754c0-8.298-6.727-15.025-15.025-15.025H166.938c-5.361,0-10.033,2.828-12.692,7.053
	l153.433,21.559C312.805,378.948,316.38,373.784,316.38,367.754z"/>
<path style="fill:#64798A;" d="M154.246,359.782c-1.457,2.315-2.333,5.035-2.333,7.973c0,8.298,6.727,15.025,15.025,15.025h134.416
	c2.268,0,4.397-0.539,6.325-1.439L154.246,359.782z"/>
<path style="fill:#3A556A;" d="M316.38,396.366c0-8.298-6.727-15.025-15.025-15.025H166.938c-5.361,0-10.033,2.828-12.692,7.053
	l153.433,21.559C312.805,407.56,316.38,402.395,316.38,396.366z"/>
<path style="fill:#64798A;" d="M154.246,388.393c-1.457,2.315-2.333,5.035-2.333,7.973c0,8.298,6.727,15.025,15.025,15.025h134.416
	c2.268,0,4.397-0.539,6.325-1.439L154.246,388.393z"/>
<path style="fill:#3A556A;" d="M316.38,424.977c0-8.298-6.727-15.025-15.025-15.025H166.938c-5.361,0-10.033,2.828-12.692,7.053
	l153.433,21.559C312.805,436.171,316.38,431.007,316.38,424.977z"/>
<path style="fill:#64798A;" d="M154.246,417.005c-1.457,2.315-2.333,5.035-2.333,7.973c0,8.298,6.727,15.025,15.025,15.025h134.416
	c2.268,0,4.397-0.539,6.325-1.439L154.246,417.005z"/>
<g>
</g>
<g>
</g>
<g>
</g>
<g>
</g>
<g>
</g>
<g>
</g>
<g>
</g>
<g>
</g>
<g>
</g>
<g>
</g>
<g>
</g>
<g>
</g>
<g>
</g>
<g>
</g>
<g>
</g>
</svg>
