<?xml version="1.0" standalone="no"?>
<!DOCTYPE svg PUBLIC "-//W3C//DTD SVG 20010904//EN"
 "http://www.w3.org/TR/2001/REC-SVG-20010904/DTD/svg10.dtd">
<svg version="1.0" xmlns="http://www.w3.org/2000/svg"
 width="512.000000pt" height="512.000000pt" viewBox="0 0 512.000000 512.000000"
 preserveAspectRatio="xMidYMid meet">
<g transform="translate(0.000000,512.000000) scale(0.100000,-0.100000)" stroke="none">
<circle fill="#FED330" cx="2560" cy="2560" r="2560"/>
<path fill="#37474F" d="M1520 2760 l0 -1010 65 0 65 0 0 167 0 166 39 -61 c74 -114 201 -212
331 -254 89 -29 277 -36 379 -14 86 18 183 61 254 112 49 36 51 36 76 20 60
-40 192 -97 266 -117 110 -30 358 -38 465 -15 151 32 281 119 330 223 31 64
38 180 17 254 -28 96 -117 176 -242 217 -33 11 -127 34 -210 52 -345 71 -420
108 -459 224 -21 66 -20 117 4 170 53 111 179 166 380 166 127 0 232 -24 340
-77 41 -20 79 -37 84 -37 5 -1 23 21 38 48 33 56 37 51 -67 102 -123 59 -209
77 -385 78 -170 1 -227 -9 -325 -55 -75 -35 -124 -76 -162 -133 l-30 -45 -39
41 c-154 159 -410 231 -646 183 -154 -32 -315 -139 -397 -265 l-36 -55 -3 463
-2 462 -65 0 -65 0 0 -1010z m852 281 c202 -52 327 -172 393 -376 30 -96 35
-123 35 -210 0 -180 -55 -321 -170 -435 -106 -107 -238 -160 -396 -160 -175 0
-294 48 -410 165 -117 118 -167 249 -167 435 0 179 55 322 168 435 141 142
348 197 547 146z m879 -645 c96 -19 204 -44 240 -56 150 -46 215 -138 189
-266 -31 -148 -161 -216 -415 -216 -147 -1 -247 23 -383 88 l-93 45 21 32 c80
122 130 284 130 421 l0 35 68 -23 c38 -13 147 -40 243 -60z"/>
</g>
</svg>
