<?xml version="1.0" encoding="iso-8859-1"?>
<!-- Generator: Adobe Illustrator 19.0.0, SVG Export Plug-In . SVG Version: 6.00 Build 0)  -->
<svg version="1.1" id="Layer_1" xmlns="http://www.w3.org/2000/svg" xmlns:xlink="http://www.w3.org/1999/xlink" x="0px" y="0px"
	 viewBox="0 0 491.52 491.52" style="enable-background:new 0 0 491.52 491.52;" xml:space="preserve">
<rect y="450.493" style="fill:#64798A;" width="491.52" height="30.771"/>
<g>
	<polygon style="fill:#3A556A;" points="491.235,481.3 0.285,481.3 25.708,491.52 465.812,491.52 	"/>
	<path style="fill:#3A556A;" d="M449.566,160.633H41.956c-8.982,0-16.263,7.281-16.263,16.262v273.596h440.134V176.895
		C465.827,167.914,458.546,160.633,449.566,160.633z"/>
</g>
<rect x="52.506" y="187.448" style="fill:#EBF0F3;" width="386.509" height="236.237"/>
<rect x="209.193" y="461.158" style="fill:#3A556A;" width="73.129" height="9.436"/>
<rect x="76.093" y="208.43" style="fill:#E56353;" width="55.68" height="55.675"/>
<g>
	<rect x="76.093" y="286.664" style="fill:#D5D6DB;" width="55.68" height="16.015"/>
	<rect x="76.093" y="326.195" style="fill:#D5D6DB;" width="55.68" height="16.015"/>
	<rect x="172.18" y="326.195" style="fill:#D5D6DB;" width="200.243" height="16.015"/>
	<rect x="76.093" y="365.67" style="fill:#D5D6DB;" width="55.68" height="16.015"/>
	<rect x="172.18" y="365.67" style="fill:#D5D6DB;" width="200.243" height="16.015"/>
</g>
<rect x="194.458" y="160.63" style="fill:#2F4859;" width="223.237" height="26.813"/>
<rect x="172.18" y="208.43" style="fill:#FCD462;" width="22.277" height="55.68"/>
<g>
	<path style="fill:#D5D6DB;" d="M195.734,286.663h-23.551v16.016h32.826C200.563,298.358,197.366,292.834,195.734,286.663z"/>
	<path style="fill:#D5D6DB;" d="M194.459,187.446v20.985h177.983v55.678H194.459v13.747c0,3.062,0.526,5.978,1.275,8.807h176.708
		v16.016H205.009c6.248,6.072,14.742,9.85,24.123,9.85h153.974c19.069,0,34.587-15.556,34.587-34.674v-90.41H194.459z"/>
</g>
<rect x="194.458" y="208.43" style="fill:#F6C358;" width="177.981" height="55.68"/>
<path style="fill:#C1C3C9;" d="M372.442,286.663H195.734c1.632,6.171,4.829,11.695,9.275,16.016h167.432V286.663z"/>
<path style="fill:#E1E6E9;" d="M383.057,10.339H229.095c-9.258,0-16.762,7.505-16.762,16.763V277.91
	c0,9.258,7.504,16.762,16.762,16.762h153.962c9.258,0,16.762-7.504,16.762-16.762V27.102
	C399.818,17.844,392.314,10.339,383.057,10.339z"/>
<path style="fill:#EBF0F3;" d="M383.057,0H229.095c-9.258,0-16.762,7.505-16.762,16.762v250.809c0,9.257,7.504,16.762,16.762,16.762
	h153.962c9.258,0,16.762-7.505,16.762-16.762V16.762C399.818,7.505,392.314,0,383.057,0z"/>
<rect x="233.011" y="20.685" style="fill:#64798A;" width="146.125" height="222.638"/>
<g>
	<rect x="233.011" y="231.168" style="fill:#3A556A;" width="146.125" height="12.155"/>
	<path style="fill:#3A556A;" d="M306.076,277.512c-7.972,0-14.453-6.482-14.453-14.454c0-7.972,6.482-14.459,14.453-14.459
		s14.454,6.487,14.454,14.459C320.53,271.03,314.047,277.512,306.076,277.512z M306.076,253.769c-5.119,0-9.284,4.165-9.284,9.289
		c0,5.12,4.165,9.284,9.284,9.284c5.12,0,9.284-4.165,9.284-9.284C315.36,257.935,311.196,253.769,306.076,253.769z"/>
</g>
<rect x="249.554" y="40.94" style="fill:#FCD462;" width="38.804" height="38.804"/>
<g>
	<rect x="298.496" y="44.764" style="fill:#3A556A;" width="41.165" height="8.207"/>
	<rect x="298.496" y="67.712" style="fill:#3A556A;" width="64.118" height="8.207"/>
</g>
<rect x="249.554" y="95.524" style="fill:#44C4A1;" width="38.804" height="38.804"/>
<g>
	<rect x="298.496" y="99.348" style="fill:#3A556A;" width="41.165" height="8.207"/>
	<rect x="298.496" y="122.296" style="fill:#3A556A;" width="64.118" height="8.207"/>
</g>
<rect x="249.554" y="150.118" style="fill:#E56353;" width="38.804" height="38.804"/>
<g>
	<rect x="298.496" y="153.907" style="fill:#3A556A;" width="41.165" height="8.207"/>
	<rect x="298.496" y="176.881" style="fill:#3A556A;" width="64.118" height="8.207"/>
</g>
<rect x="249.554" y="205.824" style="fill:#27A2DB;" width="113.05" height="16.471"/>
<g>
</g>
<g>
</g>
<g>
</g>
<g>
</g>
<g>
</g>
<g>
</g>
<g>
</g>
<g>
</g>
<g>
</g>
<g>
</g>
<g>
</g>
<g>
</g>
<g>
</g>
<g>
</g>
<g>
</g>
</svg>
