<?xml version="1.0" encoding="iso-8859-1"?>
<!-- Generator: Adobe Illustrator 19.0.0, SVG Export Plug-In . SVG Version: 6.00 Build 0)  -->
<svg version="1.1" id="Layer_1" xmlns="http://www.w3.org/2000/svg" xmlns:xlink="http://www.w3.org/1999/xlink" x="0px" y="0px"
	 viewBox="0 0 481.882 481.882" style="enable-background:new 0 0 481.882 481.882;" xml:space="preserve">
<path style="fill:#27A2DB;" d="M412.009,129.205C405.986,56.922,345.148,0.301,271.059,0.301c-39.153,0-74.089,15.661-99.991,40.96
	c-10.24-4.819-21.082-7.228-33.129-7.228c-42.767,0-77.704,34.936-77.704,77.704c0,6.024,0.602,12.649,2.409,18.071
	C27.106,137.035,0,168.96,0,206.908c0,42.767,34.936,77.704,77.704,77.704h326.475c42.767,0,77.704-34.936,77.704-77.704
	C481.882,166.551,451.162,133.421,412.009,129.205z"/>
<g>
	<path style="fill:#2D93BA;" d="M53.609,170.767l27.106-5.421l-3.012-11.445l-9.638,1.807
		c-13.854,2.409-25.901,10.842-33.129,22.287C40.358,174.984,46.381,171.972,53.609,170.767z"/>
	<path style="fill:#2D93BA;" d="M409.6,155.708l-21.685-2.409l-1.807-21.685c-5.421-59.031-55.416-104.809-114.447-104.809
		c-30.72,0-59.633,12.047-81.318,33.732l-13.252,13.252l-16.866-7.831c-7.228-3.012-14.456-4.819-21.685-4.819
		c-18.071,0-33.732,9.035-42.767,23.492c7.831-5.421,18.071-8.433,28.311-8.433c7.228,0,15.059,1.807,21.685,4.819l16.866,7.831
		l13.252-13.252c21.685-21.685,50.598-33.732,81.318-33.732c59.031,0,109.628,46.381,114.447,104.809l1.807,21.685l21.685,2.409
		c26.504,3.012,46.381,24.696,46.381,51.2c0,10.24-3.012,19.878-8.433,28.311c13.854-9.035,23.492-25.299,23.492-42.767
		C455.379,180.405,435.501,158.118,409.6,155.708z"/>
</g>
<rect x="113.242" y="277.384" style="fill:#64798A;" width="255.398" height="119.868"/>
<g>
	<path style="fill:#EBF0F3;" d="M377.073,192.452H104.809c-4.819,0-9.035,4.216-9.035,9.035v66.259c0,5.421,3.614,9.035,9.035,9.035
		h272.264c4.819,0,9.035-4.216,9.035-9.035v-65.656C385.506,196.668,381.892,192.452,377.073,192.452z"/>
	<path style="fill:#EBF0F3;" d="M377.073,397.252H104.809c-4.819,0-9.035,4.216-9.035,9.035v66.259c0,5.421,3.614,9.035,9.035,9.035
		h272.264c4.819,0,9.035-4.216,9.035-9.035v-65.656C385.506,401.468,381.892,397.252,377.073,397.252z"/>
	<path style="fill:#EBF0F3;" d="M377.073,294.852H104.809c-4.819,0-9.035,4.216-9.035,9.035v66.259c0,5.421,3.614,9.035,9.035,9.035
		h272.264c4.819,0,9.035-4.216,9.035-9.035v-65.656C385.506,299.068,381.892,294.852,377.073,294.852z"/>
</g>
<circle style="fill:#3A556A;" cx="130.108" cy="235.219" r="16.866"/>
<circle style="fill:#64798A;" cx="130.711" cy="234.616" r="12.047"/>
<circle style="fill:#E56353;" cx="171.671" cy="235.219" r="8.433"/>
<circle style="fill:#44C4A1;" cx="206.005" cy="235.219" r="8.433"/>
<circle style="fill:#3A556A;" cx="130.108" cy="337.619" r="16.866"/>
<circle style="fill:#64798A;" cx="130.711" cy="337.016" r="12.047"/>
<circle style="fill:#E56353;" cx="171.671" cy="337.619" r="8.433"/>
<circle style="fill:#44C4A1;" cx="206.005" cy="337.619" r="8.433"/>
<circle style="fill:#3A556A;" cx="130.108" cy="440.019" r="16.866"/>
<circle style="fill:#64798A;" cx="130.711" cy="439.416" r="12.047"/>
<circle style="fill:#E56353;" cx="171.671" cy="440.019" r="8.433"/>
<circle style="fill:#44C4A1;" cx="206.005" cy="440.019" r="8.433"/>
<g>
	<rect x="242.748" y="206.306" style="fill:#D5D6DB;" width="14.456" height="14.456"/>
	<rect x="271.661" y="206.306" style="fill:#D5D6DB;" width="14.456" height="14.456"/>
	<rect x="300.574" y="206.306" style="fill:#D5D6DB;" width="14.456" height="14.456"/>
	<rect x="328.885" y="206.306" style="fill:#D5D6DB;" width="14.456" height="14.456"/>
	<rect x="357.798" y="206.306" style="fill:#D5D6DB;" width="14.456" height="14.456"/>
	<rect x="257.205" y="220.762" style="fill:#D5D6DB;" width="14.456" height="14.456"/>
	<rect x="286.118" y="220.762" style="fill:#D5D6DB;" width="14.456" height="14.456"/>
	<rect x="315.031" y="220.762" style="fill:#D5D6DB;" width="14.456" height="14.456"/>
	<rect x="343.341" y="220.762" style="fill:#D5D6DB;" width="14.456" height="14.456"/>
	<rect x="242.748" y="235.219" style="fill:#D5D6DB;" width="14.456" height="14.456"/>
	<rect x="271.661" y="235.219" style="fill:#D5D6DB;" width="14.456" height="14.456"/>
	<rect x="300.574" y="235.219" style="fill:#D5D6DB;" width="14.456" height="14.456"/>
	<rect x="328.885" y="235.219" style="fill:#D5D6DB;" width="14.456" height="14.456"/>
	<rect x="357.798" y="235.219" style="fill:#D5D6DB;" width="14.456" height="14.456"/>
	<rect x="257.205" y="249.675" style="fill:#D5D6DB;" width="14.456" height="14.456"/>
	<rect x="286.118" y="249.675" style="fill:#D5D6DB;" width="14.456" height="14.456"/>
	<rect x="315.031" y="249.675" style="fill:#D5D6DB;" width="14.456" height="14.456"/>
	<rect x="343.341" y="249.675" style="fill:#D5D6DB;" width="14.456" height="14.456"/>
	<rect x="242.748" y="308.706" style="fill:#D5D6DB;" width="14.456" height="14.456"/>
	<rect x="271.661" y="308.706" style="fill:#D5D6DB;" width="14.456" height="14.456"/>
	<rect x="300.574" y="308.706" style="fill:#D5D6DB;" width="14.456" height="14.456"/>
	<rect x="328.885" y="308.706" style="fill:#D5D6DB;" width="14.456" height="14.456"/>
	<rect x="357.798" y="308.706" style="fill:#D5D6DB;" width="14.456" height="14.456"/>
	<rect x="257.205" y="323.162" style="fill:#D5D6DB;" width="14.456" height="14.456"/>
	<rect x="286.118" y="323.162" style="fill:#D5D6DB;" width="14.456" height="14.456"/>
	<rect x="315.031" y="323.162" style="fill:#D5D6DB;" width="14.456" height="14.456"/>
	<rect x="343.341" y="323.162" style="fill:#D5D6DB;" width="14.456" height="14.456"/>
	<rect x="242.748" y="337.619" style="fill:#D5D6DB;" width="14.456" height="14.456"/>
	<rect x="271.661" y="337.619" style="fill:#D5D6DB;" width="14.456" height="14.456"/>
	<rect x="300.574" y="337.619" style="fill:#D5D6DB;" width="14.456" height="14.456"/>
	<rect x="328.885" y="337.619" style="fill:#D5D6DB;" width="14.456" height="14.456"/>
	<rect x="357.798" y="337.619" style="fill:#D5D6DB;" width="14.456" height="14.456"/>
	<rect x="257.205" y="352.075" style="fill:#D5D6DB;" width="14.456" height="14.456"/>
	<rect x="286.118" y="352.075" style="fill:#D5D6DB;" width="14.456" height="14.456"/>
	<rect x="315.031" y="352.075" style="fill:#D5D6DB;" width="14.456" height="14.456"/>
	<rect x="343.341" y="352.075" style="fill:#D5D6DB;" width="14.456" height="14.456"/>
	<rect x="242.748" y="411.106" style="fill:#D5D6DB;" width="14.456" height="14.456"/>
	<rect x="271.661" y="411.106" style="fill:#D5D6DB;" width="14.456" height="14.456"/>
	<rect x="300.574" y="411.106" style="fill:#D5D6DB;" width="14.456" height="14.456"/>
	<rect x="328.885" y="411.106" style="fill:#D5D6DB;" width="14.456" height="14.456"/>
	<rect x="357.798" y="411.106" style="fill:#D5D6DB;" width="14.456" height="14.456"/>
	<rect x="257.205" y="425.562" style="fill:#D5D6DB;" width="14.456" height="14.456"/>
	<rect x="286.118" y="425.562" style="fill:#D5D6DB;" width="14.456" height="14.456"/>
	<rect x="315.031" y="425.562" style="fill:#D5D6DB;" width="14.456" height="14.456"/>
	<rect x="343.341" y="425.562" style="fill:#D5D6DB;" width="14.456" height="14.456"/>
	<rect x="242.748" y="440.019" style="fill:#D5D6DB;" width="14.456" height="14.456"/>
	<rect x="271.661" y="440.019" style="fill:#D5D6DB;" width="14.456" height="14.456"/>
	<rect x="300.574" y="440.019" style="fill:#D5D6DB;" width="14.456" height="14.456"/>
	<rect x="328.885" y="440.019" style="fill:#D5D6DB;" width="14.456" height="14.456"/>
	<rect x="357.798" y="440.019" style="fill:#D5D6DB;" width="14.456" height="14.456"/>
	<rect x="257.205" y="453.873" style="fill:#D5D6DB;" width="14.456" height="14.456"/>
	<rect x="286.118" y="453.873" style="fill:#D5D6DB;" width="14.456" height="14.456"/>
	<rect x="315.031" y="453.873" style="fill:#D5D6DB;" width="14.456" height="14.456"/>
	<rect x="343.341" y="453.873" style="fill:#D5D6DB;" width="14.456" height="14.456"/>
</g>
<g>
</g>
<g>
</g>
<g>
</g>
<g>
</g>
<g>
</g>
<g>
</g>
<g>
</g>
<g>
</g>
<g>
</g>
<g>
</g>
<g>
</g>
<g>
</g>
<g>
</g>
<g>
</g>
<g>
</g>
</svg>
