<svg height="512" viewBox="0 0 58 58" width="512" xmlns="http://www.w3.org/2000/svg"><g id="001---System-Prefs" fill="none"><path id="Shape" d="m36.94 44.03 4.39 4.38c-2.0577471 1.3185031-4.3157332 2.2945097-6.686 2.89-.736243.1745471-1.3109486.7496397-1.485 1.486l-.989 4.434c-.1023958.4540653-.5045393.7774384-.97.78h-4.4c-.4665848-.0011667-.8703525-.3248448-.973-.78l-.983-4.42c-.1525081-.7213502-.6982529-1.2953298-1.411-1.484-2.2142223-.5516925-4.3338448-1.4303467-6.289-2.607-.6295913-.3679496-1.4129516-.3489848-2.024.049l-3.82 2.442c-.3957411.2528724-.914129.1962908-1.246-.136l-3.114-3.114c-.33567446-.3314816-.39402539-.852472-.14-1.25l2.437-3.824c.39798482-.6110484.41694957-1.3944087.049-2.024-1.17665333-1.9551552-2.0553075-4.0747777-2.607-6.289-.18915139-.7098307-.76062027-1.2534796-1.479-1.407l-4.422-.987c-.4543692-.1007683-.77779133-.503591-.778-.969v-4.4c.0001044-.4651087.32302821-.8678283.777-.969l4.423-.987c.72135023-.1525081 1.29532984-.6982529 1.484-1.411.5516925-2.2142223 1.43034667-4.3338448 2.607-6.289.36794957-.6295913.34898482-1.4129516-.049-2.024l-2.442-3.83c-.24987725-.392459-.19376379-.9057933.135-1.235l3.12-3.12c.3292067-.32876379.842541-.38487725 1.235-.135l3.83 2.441c.6110484.39798482 1.3944087.41694957 2.024.049 1.9551552-1.17665333 4.0747777-2.0553075 6.289-2.607.7124734-.18850714 1.2581555-.76203412 1.411-1.483l.986-4.42c.1023958-.45406529.5045393-.7774384.97-.78h4.4c.4651087.0001044.8678283.32302821.969.777l.987 4.423c.1525081.72135023.6982529 1.29532984 1.411 1.484 2.2142223.5516925 4.3338448 1.43034667 6.289 2.607.6295913.36794957 1.4129516.34898482 2.024-.049l3.82-2.442c.3957411-.25287242.914129-.19629075 1.246.136l3.11 3.11c.3390705.3310751.3991978.8546836.144 1.254l-2.441 3.82c-.3979848.6110484-.4169496 1.3944087-.049 2.024 1.1766533 1.9551552 2.0553075 4.0747777 2.607 6.289.1885071.7124734.7620341 1.2581555 1.483 1.411l4.419.986c.4544624.1019954.7783318.5042404.781.97v4.4c-.0001044.4651087-.3230282.8678283-.777.969l-4.438.99c-.7369552.1732702-1.3122259.7489283-1.485 1.486-.6008876 2.3744765-1.5800793 4.6367468-2.9 6.7l-4.38-4.38" fill="#4482c3"/><path id="Shape" d="m44.02 36.97c3.9467897-7.4293839 1.8660775-16.6282008-4.8938741-21.6357898-6.7599517-5.0075891-16.165894-4.3177748-22.1229529 1.6224563-5.9570588 5.940231-6.6734784 15.3441842-1.6850322 22.1182746 4.9884461 6.7740903 14.1813401 8.8808162 21.6218592 4.9550589" fill="#35495e"/><path id="Shape" d="m11 29c.0006588-7.4884897 4.6375892-14.1943123 11.6436214-16.8387387 7.0060321-2.64442644 14.9174443-.6749749 19.866049 4.9454155 4.9486048 5.6203905 5.9005244 13.7174906 2.3903296 20.3323232-.2646059.4764456-.8619939.6532784-1.3433064.3976323-.4813125-.2556462-.6692905-.8496213-.4226936-1.3356323 3.714508-6.9921247 1.7564646-15.6495353-4.6054211-20.3626858-6.3618858-4.7131504-15.2142288-4.0645253-20.8211772 1.5256006-5.6069484 5.5901258-6.2821702 14.44048-1.5881572 20.816499 4.694013 6.3760191 13.345501 8.3600674 20.3487555 4.6665862.3162292-.1756258.7026516-.1667849 1.0105179.0231193.3078664.1899043.4891776.5312643.4741399.8926771s-.2240798.6865309-.5466578.8502036c-5.5801063 2.9325938-12.2869195 2.736444-17.6860994-.517254-5.3991798-3.253698-8.7058866-9.0919775-8.7199006-15.395746z" fill="#285680"/><path id="Shape" d="m54.49 47.44-15.03-15.03c1.2256959-3.7788286.3186435-7.9249464-2.3729664-10.8467802-2.6916098-2.9218337-6.7495261-4.1653578-10.6160336-3.2532198-.1813871.035744-.3282477.1686598-.3818513.3455936-.0536036.1769337-.005201.3690063.1258513.4994064l5.985 5.981c.1210393.1207842.1719602.2950471.135.462l-1.152 5.22c-.0422001.1900335-.1908563.3382995-.381.38l-5.211 1.143c-.1661446.0364894-.3394434-.0139933-.46-.134l-5.99-5.981c-.1305394-.1310704-.3227791-.1793569-.499761-.1255293-.1769818.0538276-.3097826.2009726-.345239.3825293-.9137276 3.8634713.326859 7.9194337 3.2454724 10.6107168s7.0616567 3.5996209 10.8385276 2.3762832c11.329 11.33 1.542 1.53 15.05 15.04 1.9738312 1.8141414 5.0271896 1.7487287 6.9215161-.148281s1.9554173-4.9504576.1384839-6.921719zm-3.49 5.56c-1.1045695 0-2-.8954305-2-2s.8954305-2 2-2 2 .8954305 2 2c-.0032948 1.1032019-.8967981 1.9967052-2 2z" fill="#95a5a5"/><g fill="#285680"><path id="Shape" d="m30 8h-2c-.5522847 0-1-.44771525-1-1s.4477153-1 1-1h2c.5522847 0 1 .44771525 1 1s-.4477153 1-1 1z"/><path id="Shape" d="m30 52h-2c-.5522847 0-1-.4477153-1-1s.4477153-1 1-1h2c.5522847 0 1 .4477153 1 1s-.4477153 1-1 1z"/><path id="Shape" d="m12.736 15.151c-.4043959-.0000863-.7689341-.2437275-.923678-.6173454-.1547439-.373618-.0692299-.8036603.216678-1.0896546l1.415-1.415c.3923789-.3789722 1.0160848-.3735524 1.4018186.0121814s.3911536 1.0094397.0121814 1.4018186c-1.538 1.538-1.595 1.708-2.122 1.708z"/><path id="Shape" d="m7 31c-.55228475 0-1-.4477153-1-1v-2c0-.5522847.44771525-1 1-1s1 .4477153 1 1v2c0 .5522847-.44771525 1-1 1z"/><path id="Shape" d="m51 31c-.5522847 0-1-.4477153-1-1v-2c0-.5522847.4477153-1 1-1s1 .4477153 1 1v2c0 .5522847-.4477153 1-1 1z"/><path id="Shape" d="m14.151 46.264c-.2651948-.0000566-.5195073-.1054506-.707-.293l-1.415-1.415c-.3789722-.3923789-.3735524-1.0160848.0121814-1.4018186s1.0094397-.3911536 1.4018186-.0121814l1.415 1.415c.2859079.2859943.3714219.7160366.216678 1.0896546-.1547439.3736179-.5192821.6172591-.923678.6173454z"/><path id="Shape" d="m45.264 15.151c-.2651948-.0000566-.5195073-.1054506-.707-.293l-1.415-1.415c-.3789722-.3923789-.3735524-1.0160848.0121814-1.4018186s1.0094397-.3911536 1.4018186-.0121814l1.415 1.415c.2859079.2859943.3714219.7160366.216678 1.0896546-.1547439.3736179-.5192821.6172591-.923678.6173454z"/></g><path id="Shape" d="m47 48c-.2651948-.0000566-.5195073-.1054506-.707-.293l-11-11c-.3789722-.3923789-.3735524-1.0160848.0121814-1.4018186s1.0094397-.3911536 1.4018186-.0121814l11 11c.2859079.2859943.3714219.7160366.216678 1.0896546-.1547439.3736179-.5192821.6172591-.923678.6173454z" fill="#7f8c8d"/></g></svg>