<?xml version="1.0" encoding="iso-8859-1"?>
<!-- Generator: Adobe Illustrator 21.0.0, SVG Export Plug-In . SVG Version: 6.00 Build 0)  -->
<svg xmlns="http://www.w3.org/2000/svg" xmlns:xlink="http://www.w3.org/1999/xlink" version="1.1" id="Capa_1" x="0px" y="0px" viewBox="0 0 512.164 512.164" style="enable-background:new 0 0 512.164 512.164;" xml:space="preserve" width="512" height="512">
<g>
	<path style="fill:#FF3D43;" d="M409.742,78.09c-3.25-23.758-12.556-42.799-27.659-56.592   c-13.217-12.071-30.182-19.29-49.061-20.877c-17.836-1.502-36.01,2.245-51.183,10.544c-10.709,5.857-19.417,13.763-25.5,22.994   c-6.083-9.231-14.791-17.137-25.501-22.994C215.665,2.867,197.488-0.88,179.655,0.621c-18.879,1.587-35.844,8.806-49.061,20.877   c-15.103,13.793-24.409,32.833-27.659,56.592c-3.598,26.3,2.295,53.001,17.517,79.36c11.918,20.638,29.571,41.104,52.47,60.829   c38.633,33.278,78.461,52.809,80.137,53.624c1.035,0.504,2.157,0.755,3.279,0.755s2.244-0.251,3.279-0.755   c1.677-0.815,41.504-20.346,80.137-53.624c22.899-19.725,40.553-40.191,52.47-60.829C407.447,131.091,413.34,104.391,409.742,78.09   z"/>
	<g>
		<path style="fill:#D62D2D;" d="M409.742,78.09c-3.25-23.758-12.556-42.799-27.659-56.592    c-13.217-12.071-30.182-19.29-49.061-20.877c-8.365-0.704-16.801-0.24-24.97,1.293c15.116,2.88,28.7,9.549,39.689,19.584    C362.844,35.291,372.15,54.332,375.4,78.09c3.598,26.3-2.295,53.001-17.517,79.36c-11.917,20.638-29.571,41.104-52.47,60.829    c-25.226,21.73-50.954,37.593-66.245,46.216c8.127,4.583,13.31,7.125,13.892,7.408c1.035,0.504,2.157,0.755,3.279,0.755    s2.244-0.251,3.279-0.755c1.677-0.815,41.504-20.346,80.137-53.624c22.899-19.725,40.553-40.191,52.47-60.829    C407.447,131.091,413.34,104.391,409.742,78.09z"/>
	</g>
	<g>
		<path style="fill:#464649;" d="M197.932,125.089c-8.024,0-14.553-6.528-14.553-14.553s6.528-14.553,14.553-14.553    c8.025,0,14.553,6.528,14.553,14.553S205.957,125.089,197.932,125.089z"/>
		<path style="fill:#464649;" d="M314.746,125.089c-8.025,0-14.553-6.528-14.553-14.553s6.528-14.553,14.553-14.553    c8.025,0,14.553,6.528,14.553,14.553S322.771,125.089,314.746,125.089z"/>
	</g>
	<path style="fill:#464649;" d="M256.339,159.909c-14.669,0-27.469-9.4-31.852-23.391c-1.238-3.953,0.963-8.161,4.916-9.399   c3.957-1.235,8.161,0.963,9.399,4.916c2.412,7.701,9.46,12.874,17.537,12.874c8.078,0,15.125-5.174,17.537-12.874   c1.238-3.953,5.446-6.152,9.399-4.916c3.953,1.238,6.153,5.446,4.916,9.399C283.808,150.509,271.008,159.909,256.339,159.909z"/>
	<g>
		<path style="fill:#F7B081;" d="M360.022,307.196c-7.831-10.636-22.007-13.909-33.704-7.783l-99.567,52.13    c-3.059,1.602-4.629,5.083-3.805,8.436c0.825,3.353,3.831,5.709,7.283,5.709h83.317c1.246,0,2.474-0.311,3.569-0.904l34.16-18.488    c6.76-3.658,11.599-10.058,13.277-17.559C366.23,321.237,364.578,313.385,360.022,307.196z"/>
		<path style="fill:#DB9975;" d="M364.552,328.738c1.498-6.698,0.335-13.673-3.175-19.497l-102.624,56.447h54.793    c1.246,0,2.474-0.311,3.569-0.904l34.16-18.488C358.034,342.638,362.873,336.238,364.552,328.738z"/>
		<path style="fill:#F7B081;" d="M412.841,323.778c-7.127-11.763-22.187-15.849-34.283-9.303l-68.582,37.117    c-3.02,1.634-4.544,5.109-3.701,8.438c0.843,3.328,3.838,5.659,7.271,5.659h17.102c7.145,0,12.957,5.813,12.957,12.957    c0,2.627,1.374,5.063,3.623,6.42c1.189,0.718,2.532,1.08,3.877,1.08c1.197,0,2.397-0.287,3.492-0.863l48.21-25.364    c6.258-3.293,10.933-9.089,12.824-15.903C417.522,337.202,416.506,329.826,412.841,323.778z"/>
		<path style="fill:#DB9975;" d="M412.841,323.778c-0.032-0.052-0.066-0.102-0.099-0.154l-76.466,43.368    c4.329,2.1,7.328,6.527,7.328,11.652c0,2.627,1.374,5.063,3.623,6.42c1.189,0.718,2.532,1.08,3.877,1.08    c1.197,0,2.397-0.287,3.492-0.863l48.21-25.364c6.258-3.293,10.933-9.089,12.824-15.903    C417.522,337.202,416.506,329.826,412.841,323.778z"/>
		<path style="fill:#F7B081;" d="M467.636,334.204c-7.51-10.496-21.787-13.879-33.21-7.87l-86.814,45.674    c-2.465,1.296-4.008,3.852-4.008,6.637c0,6.512-4.872,12.038-11.332,12.854l-127.275,16.092c-3.758,0.475-6.571,3.676-6.56,7.463    c0.012,3.787,2.844,6.971,6.605,7.424l54.054,6.504c10.062,1.211,20.112,1.812,30.111,1.812    c42.027,0,83.148-10.625,120.395-31.294l49.518-27.479c6.467-3.589,11.107-9.785,12.731-17.001    C473.476,347.805,471.939,340.218,467.636,334.204z"/>
		<path style="fill:#DB9975;" d="M301.241,402.983l-102.738,12.989c0.424,3.372,3.087,6.091,6.539,6.507l54.054,6.504    c10.062,1.211,20.112,1.812,30.111,1.812c42.027,0,83.148-10.625,120.395-31.294l49.518-27.479    c6.467-3.589,11.107-9.785,12.731-17.001c1.28-5.684,0.591-11.595-1.86-16.79l-124.953,66.676L301.241,402.983z"/>
		<path style="fill:#FFC89F;" d="M506.361,356.869c-8.516-11.27-23.767-14.673-36.265-8.093c-0.049,0.025-0.097,0.052-0.146,0.078    l-67.629,37.53c-41.367,22.956-87.82,32.725-134.749,28.415l66.58-8.418c13.939-1.762,24.451-13.686,24.451-27.736    c0-15.415-12.541-27.957-27.957-27.957H231.75c-7.953-3.25-44.527-16.692-87.76-8.655c-41.698,7.751-75.837,32.918-84.685,39.904    H7.5c-4.142,0-7.5,3.358-7.5,7.5v99.256c0,4.142,3.358,7.5,7.5,7.5h54.127l170.207,15.168c3.844,0.343,7.677,0.507,11.514,0.506    c48.802-0.003,96.83-26.58,139.564-50.231c5.191-2.874,10.319-5.711,15.376-8.462l98.891-53.796    c7.346-3.997,12.571-10.976,14.337-19.15C513.281,372.055,511.403,363.541,506.361,356.869z"/>
		<path style="fill:#FFB98A;" d="M511.516,380.229c1.406-6.511,0.494-13.235-2.482-19.075l-119.12,65.145    c-49.568,26.964-106,62.313-162.204,57.305L57.17,468.405H0v20.288c0,4.142,3.358,7.5,7.5,7.5h54.127l170.207,15.168    c3.844,0.343,7.677,0.507,11.514,0.506c48.802-0.003,96.83-26.58,139.564-50.231c5.191-2.874,10.319-5.711,15.376-8.462    l98.891-53.796C504.524,395.382,509.75,388.403,511.516,380.229z"/>
	</g>
</g>















</svg>
