<svg height="512" viewBox="0 0 64 64" width="512" xmlns="http://www.w3.org/2000/svg"><rect fill="#00ccb3" height="52" rx="2" width="40" x="15" y="3"/><path d="m51 11v44h-2v-44a2.006 2.006 0 0 0 -2-2h2a2.006 2.006 0 0 1 2 2z" fill="#00b39d"/><rect fill="#ffde55" height="52" rx="2" width="40" x="9" y="9"/><path d="m33 33h5v16h-5z" fill="#ff9811"/><path d="m23 33h5v16h-5z" fill="#ff9811"/><path d="m28 33h5v16h-5z" fill="#ee8700"/><path d="m43 27v6h-5-5-5-5v-6z" fill="#ff5023"/><path d="m15 33h8v16h-8z" fill="#e6e7e8"/><path d="m38 33h5v16h-5z" fill="#ee8700"/><path d="m15 27h8v6h-8z" fill="#ff6243"/><path d="m43 9v9l-2-3-2 3v-9z" fill="#ff5023"/><g fill="#ebbf00"><path d="m14 18h8v2h-8z"/><path d="m14 14h2v2h-2z"/><path d="m18 14h4v2h-4z"/><path d="m25 22h8v2h-8z"/><path d="m43 56a3.044 3.044 0 0 1 -2.434-1.36c-.425-.512-.575-.64-.9-.64-.337 0-.5.156-.9.64a2.861 2.861 0 0 1 -4.871 0c-.4-.485-.562-.641-.9-.641v-1.999a3.049 3.049 0 0 1 2.437 1.36c.4.484.561.64.9.64s.5-.156.9-.641a2.86 2.86 0 0 1 4.869 0c.425.512.575.64.9.64z"/></g></svg>